<mxfile host="app.diagrams.net" modified="2022-02-19T07:42:17.674Z" agent="5.0 (Macintosh; Intel Mac OS X 10_15_6) AppleWebKit/605.1.15 (KHTML, like Gecko) Version/15.3 Safari/605.1.15" etag="aTso3IEcQ2QTux3zJa4s" version="16.5.6" type="github">
  <diagram id="w_WLqxgE0yqcpI3d3WtX" name="第 1 页">
    <mxGraphModel dx="696" dy="616" grid="1" gridSize="10" guides="1" tooltips="1" connect="1" arrows="1" fold="1" page="1" pageScale="1" pageWidth="827" pageHeight="1169" math="0" shadow="0">
      <root>
        <mxCell id="0" />
        <mxCell id="1" parent="0" />
        <mxCell id="SisYvx3sNHp3EzhwE6R7-3" style="edgeStyle=orthogonalEdgeStyle;rounded=0;orthogonalLoop=1;jettySize=auto;html=1;entryX=0.75;entryY=0;entryDx=0;entryDy=0;sketch=1;" edge="1" parent="1" source="7pDWPSlHhVd6OLDWpZPJ-2" target="SisYvx3sNHp3EzhwE6R7-1">
          <mxGeometry relative="1" as="geometry" />
        </mxCell>
        <mxCell id="SisYvx3sNHp3EzhwE6R7-4" style="edgeStyle=orthogonalEdgeStyle;rounded=0;sketch=1;orthogonalLoop=1;jettySize=auto;html=1;entryX=0.5;entryY=0;entryDx=0;entryDy=0;" edge="1" parent="1" source="7pDWPSlHhVd6OLDWpZPJ-2" target="SisYvx3sNHp3EzhwE6R7-2">
          <mxGeometry relative="1" as="geometry">
            <Array as="points">
              <mxPoint x="440" y="210" />
            </Array>
          </mxGeometry>
        </mxCell>
        <mxCell id="SisYvx3sNHp3EzhwE6R7-5" value="初始化服务，上传&lt;br&gt;依赖的配置文件" style="edgeLabel;html=1;align=center;verticalAlign=middle;resizable=0;points=[];" vertex="1" connectable="0" parent="SisYvx3sNHp3EzhwE6R7-4">
          <mxGeometry x="0.2839" y="3" relative="1" as="geometry">
            <mxPoint as="offset" />
          </mxGeometry>
        </mxCell>
        <mxCell id="7pDWPSlHhVd6OLDWpZPJ-2" value="github测试" style="rounded=0;whiteSpace=wrap;html=1;sketch=1;" parent="1" vertex="1">
          <mxGeometry x="230" y="160" width="120" height="60" as="geometry" />
        </mxCell>
        <mxCell id="SisYvx3sNHp3EzhwE6R7-1" value="SMP" style="rounded=0;whiteSpace=wrap;html=1;sketch=1;" vertex="1" parent="1">
          <mxGeometry x="170" y="410" width="120" height="60" as="geometry" />
        </mxCell>
        <mxCell id="SisYvx3sNHp3EzhwE6R7-2" value="VCS" style="rounded=0;whiteSpace=wrap;html=1;sketch=1;" vertex="1" parent="1">
          <mxGeometry x="380" y="410" width="120" height="60" as="geometry" />
        </mxCell>
      </root>
    </mxGraphModel>
  </diagram>
</mxfile>
